<?xml version="1.0" encoding="iso-8859-1"?>
<!-- Generator: Adobe Illustrator 16.0.0, SVG Export Plug-In . SVG Version: 6.00 Build 0)  -->
<!DOCTYPE svg PUBLIC "-//W3C//DTD SVG 1.1//EN" "http://www.w3.org/Graphics/SVG/1.1/DTD/svg11.dtd">
<svg version="1.1" id="Capa_1" xmlns="http://www.w3.org/2000/svg" xmlns:xlink="http://www.w3.org/1999/xlink" x="0px" y="0px"
	 width="14px" height="14px" viewBox="0 0 47.001 47.001" style="enable-background:new 0 0 47.001 47.001;"
	 xml:space="preserve">
<g>
	<g id="Layer_1_156_">
		<g>
			<path d="M7.443,22.542H2.232c-1.174,0-2.126,0.953-2.126,2.126v20.205c0,1.174,0.952,2.127,2.126,2.127h5.211
				c1.174,0,2.126-0.953,2.126-2.127V24.669C9.57,23.495,8.619,22.542,7.443,22.542z" fill="#b2bec3"/>
			<path d="M19.885,28.923h-5.211c-1.174,0-2.126,0.952-2.126,2.127v13.824c0,1.174,0.952,2.127,2.126,2.127h5.211
				c1.174,0,2.126-0.953,2.126-2.127V31.05C22.013,29.875,21.061,28.923,19.885,28.923z" fill="#b2bec3"/>
		</g>
	</g>
</g>
</svg>
